<svg width="489" height="263" xmlns="http://www.w3.org/2000/svg" xml:space="preserve" enable-background="new 0 0 500 500" version="1.1">

 <g>
  <title>Layer 1</title>
  <path id="svg_1" data-index="1" d="m277.09216,159.00662c-2.64444,0 -4.80337,0 -7.54388,0c0,-15.01898 0,-29.87072 0,-44.94089c-7.33588,0 -14.08975,0 -21.20496,0c0,14.95975 0,29.72153 0,44.70963c-9.77696,0 -19.19662,0 -28.99704,0c-0.07803,-1.42056 -0.22514,-2.85526 -0.22566,-4.29001c-0.01239,-34.47324 -0.01407,-68.94647 0.00333,-103.41971c0.0011,-2.16111 0.02102,-4.34146 0.2913,-6.48011c1.93355,-15.2996 9.77101,-22.34873 25.21414,-22.53605c9.82404,-0.11917 19.65406,-0.16444 29.47574,0.03548c14.72086,0.29962 22.65244,7.77757 24.12757,22.48734c0.28183,2.81031 0.39822,5.6484 0.40048,8.47384c0.02685,33.474 0.01746,66.94802 0.01758,100.42203c0.00003,1.64276 0,3.28555 0,5.53845c-7.22913,0 -14.15113,0 -21.5586,0m-10.14941,-116.83496c-4.3244,-0.09306 -8.65488,-0.07558 -12.9715,-0.31093c-4.14445,-0.22595 -5.72641,1.79807 -5.7059,5.68126c0.0396,7.49922 0.01045,14.99881 0.01016,22.49825c-0.00024,6.94876 -0.00004,13.89753 -0.00004,20.85069c7.35029,0 14.10808,0 21.10652,0c0,-14.7677 0.04901,-29.24498 -0.0734,-43.7208c-0.01266,-1.50132 -1.04406,-2.99403 -2.36584,-4.99847z" fill="#040404"/>
  <path id="svg_2" data-index="2" d="m118.30936,112.99994c0.00002,-19.82861 -0.00012,-39.15721 0.00002,-58.48581c0.00001,-1.16638 -0.00499,-2.33282 0.00459,-3.49913c0.17224,-20.95374 8.23976,-28.99266 29.12329,-29.0117c7.99804,-0.0073 15.99638,-0.04445 23.99406,0.01071c17.57735,0.12124 26.28548,8.69029 26.42088,26.60289c0.19646,25.99216 0.10501,51.98691 0.0344,77.9803c-0.01352,4.97934 -0.09674,10.01871 -0.84504,14.92401c-1.83647,12.03888 -9.54988,19.01004 -21.71922,19.37588c-11.48614,0.34534 -23.00046,0.36765 -34.4848,-0.00698c-12.4507,-0.40613 -20.67202,-8.03583 -21.78356,-20.4415c-0.80043,-8.93341 -0.53482,-17.96234 -0.74462,-27.44867m29.40707,-57.47952c0.00002,24.11685 0.00157,48.2337 -0.00052,72.35055c-0.00127,14.73297 -1.13878,13.12998 13.05895,13.16388c7.37451,0.01764 7.97911,-0.58377 7.98118,-7.89709c0.00786,-27.60962 0.00542,-55.21926 0.00179,-82.82888c-0.00107,-8.07051 -0.33138,-8.40936 -8.46555,-8.3892c-13.55554,0.03358 -12.59636,-1.50806 -12.57585,13.60074z" fill="#A76126"/>
  <path id="svg_3" data-index="3" d="m62.14475,141.04816c13.36786,0.01394 12.91003,1.34622 12.81793,-12.46781c-0.04995,-7.49171 -0.0089,-14.98404 -0.0089,-22.96681c-3.57808,0 -6.98727,0 -10.65123,0c0,-7.3985 0,-14.30754 0,-21.64175c1.77308,0 3.39423,0.00001 5.01537,0.00001c10.96299,0 21.92599,-0.00001 33.16302,-0.00001c0.08781,1.82399 0.23165,3.28004 0.21666,4.73445c-0.17668,17.15164 0.16076,34.3316 -0.74842,51.4451c-0.67795,12.76101 -9.17793,20.2987 -21.94823,20.74142c-10.81633,0.37494 -21.66478,0.35718 -32.48291,0.01053c-13.10981,-0.42008 -21.26087,-8.43802 -22.47637,-21.52274c-0.27676,-2.97924 -0.27381,-5.99118 -0.27612,-8.98815c-0.01985,-25.82523 -0.01672,-51.65046 -0.00332,-77.47568c0.00138,-2.66455 0.02005,-5.33513 0.19139,-7.99254c0.89765,-13.922 9.02025,-22.24973 22.87076,-22.75964c10.48202,-0.38591 20.99889,-0.36065 31.48337,-0.01162c13.65256,0.45452 21.50985,7.90393 22.81079,21.6126c0.5599,5.89992 0.09376,11.8972 0.09376,18.13444c-8.825,0 -17.74526,0 -27.25853,0c0,-3.84233 0.00129,-7.78021 -0.00026,-11.71809c-0.00322,-8.13846 -0.15217,-8.28291 -8.51371,-8.28479c-2.16599,-0.00049 -4.34357,0.14389 -6.49557,-0.02957c-4.62571,-0.3729 -6.12104,1.80505 -6.09194,6.23085c0.12928,19.65964 0.056,39.32062 0.05597,58.98111c-0.00001,8.66395 -0.00279,17.32791 0.00083,25.99185c0.00326,7.8045 0.13864,7.94037 8.23566,7.97684z" fill="#020202"/>
  <path id="svg_4" data-index="4" d="m395.76361,40.9767c2.85266,-12.12764 9.62915,-18.20048 21.73447,-18.76358c9.80548,-0.45613 19.66418,-0.45033 29.47149,-0.01848c13.0387,0.57416 20.53794,7.67131 22.18039,20.61041c0.68201,5.3729 0.60651,10.84194 0.88919,16.54386c-9.61169,0 -18.53573,0 -28.02411,0c0,-3.19271 -0.04006,-6.29842 0.0106,-9.40267c0.05758,-3.52931 -1.57062,-5.17094 -5.14768,-5.12915c-15.77371,0.18433 -14.10471,-1.90205 -14.15213,13.5734c-0.01276,4.1642 0.14078,8.33468 -0.04047,12.49101c-0.19299,4.42491 1.50058,6.40425 6.12537,6.22917c6.15292,-0.23291 12.33453,-0.24856 18.48328,0.05652c14.49441,0.71918 23.11154,8.93077 23.61804,23.1624c0.44989,12.64121 0.47809,25.32761 -0.03278,37.96478c-0.57065,14.11573 -9.32144,22.33155 -23.40841,22.66614c-9.48896,0.22543 -18.99063,0.20621 -28.48096,0.01477c-14.21283,-0.28674 -22.58869,-8.07052 -23.77554,-22.36032c-0.50608,-6.09332 -0.08454,-12.2637 -0.08454,-18.95393c4.53601,0 8.96338,-0.00002 13.39072,-0.00002c4.48321,0 8.9664,0.00002 14.20495,0.00002c0,4.6855 0.08884,9.09941 -0.02633,13.50795c-0.10437,3.99417 1.63141,5.76333 5.67206,5.71322c16.60116,-0.20605 15.13024,2.01264 15.13729,-14.80365c0.00202,-4.8305 -0.03546,-9.66133 0.00821,-14.49144c0.0354,-3.91745 -1.64645,-5.76666 -5.75073,-5.65088c-6.15771,0.17375 -12.32767,0.14656 -18.48688,-0.01123c-13.89624,-0.35606 -22.55773,-6.99153 -23.64553,-20.65706c-1.10389,-13.8679 -0.05396,-27.90724 0.13003,-42.29124z" fill="#020202"/>
  <path id="svg_5" data-index="5" d="m349.28278,127.8822c0,2.28733 0,4.08969 0,6.31861c10.65774,0 20.90753,0 31.51944,0c0,8.32971 0,16.23501 0,24.47271c-19.91324,0 -40.10614,0 -60.49411,0c0,-44.72883 0,-89.30458 0,-134.23675c9.54101,0 19.06924,0 28.97463,0c0,34.41409 0,68.6873 0.00004,103.44543z" fill="#020202"/>
  <path id="svg_6" data-index="6" d="m340.02191,206.72467c-0.77542,7.5972 -4.1326,12.96445 -11.43039,16.23883c2.10251,4.20352 4.14917,8.27628 6.17832,12.35776c1.98214,3.98681 3.94641,7.98254 6.2669,12.67953c-4.88742,0 -9.28146,0.16944 -13.64499,-0.12075c-1.07238,-0.07135 -2.42489,-1.44666 -2.99725,-2.55796c-2.35403,-4.57059 -4.44791,-9.27481 -6.65427,-13.92184c-3.68875,-7.7692 -3.69418,-7.76663 -13.19696,-6.19959c0,7.34638 0,14.77039 0,22.49506c-4.76165,0 -9.14572,0 -13.74151,0c0,-21.09378 0,-42.16565 0,-63.51074c10.98672,0 21.79272,-0.51758 32.52609,0.14404c10.96295,0.67578 16.83963,8.99835 16.69406,22.39566m-20.1644,-10.59692c-5.04773,0 -10.09546,0 -15.21298,0c0,5.8854 0,11.11816 0,16.80142c4.50134,0 8.76212,-0.04529 13.02152,0.01315c3.98587,0.05469 7.28796,-0.80707 8.13278,-5.41708c1.12039,-6.11386 -0.24658,-9.15332 -5.94132,-11.39749z" fill="#030303"/>
  <path id="svg_7" data-index="7" d="m278.94488,212.23203c-0.8829,7.00894 -0.89056,13.84005 -2.88531,20.03088c-3.60883,11.20023 -12.74588,16.76605 -25.04353,16.78409c-12.35567,0.01813 -21.12062,-5.54932 -25.30915,-16.57688c-4.05034,-10.66381 -4.03436,-21.5813 -0.25103,-32.27664c4.29483,-12.14136 14.74167,-18.20758 28.42875,-17.11117c12.35541,0.98971 21.21488,8.98782 24.00721,21.77246c0.49594,2.27044 0.69595,4.60556 1.05306,7.37726m-41.3406,7.17855c0.09047,1.66321 0.10373,3.33487 0.28458,4.98819c0.85162,7.78531 5.72164,12.39176 13.04228,12.39688c7.27626,0.0051 12.49507,-4.67428 13.01661,-12.38974c0.39197,-5.79895 0.44001,-11.68634 -0.09436,-17.46634c-0.67849,-7.33904 -6.12289,-11.79724 -13.18005,-11.64355c-6.96465,0.15164 -11.8143,4.45468 -12.6561,11.6665c-0.44238,3.79001 -0.29472,7.6489 -0.41296,12.44806z" fill="#050505"/>
  <path id="svg_8" data-index="8" d="m207.05293,243.06476c-14.73773,12.07892 -34.09709,6.17935 -39.00149,-11.72495c-3.05997,-11.17083 -2.98516,-22.43335 0.94381,-33.42276c3.56983,-9.9848 10.70069,-14.81033 21.28472,-14.91757c11.02644,-0.11169 18.67049,4.35461 21.90423,14.61386c4.91144,15.58173 5.54906,31.08597 -5.13127,45.45142m-24.28413,-10.59101c1.87129,4.56986 5.61394,5.21909 9.89732,4.71021c4.14685,-0.49268 6.50952,-3.36466 6.68518,-6.99411c0.44869,-9.271 0.72974,-18.60678 0.10752,-27.85138c-0.36712,-5.45447 -3.84415,-7.62421 -8.82665,-7.59351c-5.01805,0.03092 -8.28615,2.09638 -8.59221,7.7605c-0.52517,9.71924 0.16133,19.50394 0.72884,29.96829z" fill="#050505"/>
  <path id="svg_9" data-index="9" d="m386.33502,246.52405c-15.01175,5.26129 -29.24344,2.12011 -37.32135,-8.08679c2.85123,-2.7529 5.71832,-5.52109 8.23676,-7.95264c4.19006,1.98614 8.21389,4.16235 12.45086,5.78049c1.91825,0.73257 4.29065,0.6484 6.4032,0.42532c5.02542,-0.5307 7.80622,-3.30896 7.84769,-7.44028c0.05063,-5.04092 -3.47186,-6.3295 -7.48972,-7.04025c-4.41684,-0.7814 -8.95941,-1.11639 -13.23587,-2.36783c-7.17431,-2.09955 -11.54989,-6.96103 -12.34509,-14.6506c-0.85312,-8.24918 1.93216,-14.76608 9.28754,-18.90589c11.0588,-6.22418 26.99359,-3.82959 36.4324,5.7071c-3.25317,2.71231 -6.51871,5.43487 -9.94128,8.28839c-4.1752,-4.11982 -10.02472,-6.13214 -16.94269,-4.49872c-3.12531,0.73794 -4.99634,2.47073 -5.06018,5.84607c-0.06348,3.35748 1.70981,5.39224 4.79126,6.09527c4.05093,0.92414 8.19873,1.41752 12.26217,2.29416c9.8451,2.12394 14.93875,7.05182 16.07505,15.34918c1.22598,8.95264 -2.69849,16.34879 -11.45075,21.15702z" fill="#050505"/>
  <path id="svg_10" data-index="10" d="m111.00309,184.05725c8.95256,0 17.40598,0 26.11874,0c0,4.11551 0,7.86511 0,12.16498c-9.1626,0 -18.37683,0 -27.85839,0c0,4.62155 0,8.70776 0,13.15683c7.71213,0 15.48122,0 23.57103,0c0,4.23999 0,8.12482 0,12.38901c-7.83317,0 -15.57962,0 -23.67422,0c0,8.77325 0,17.18786 0,25.91708c-4.73719,0 -9.13149,0 -13.83383,0c0,-20.92664 0,-41.96329 0,-63.6279c5.00413,0 10.09083,0 15.67667,0z" fill="#020202"/>
  <path id="svg_11" data-index="11" d="m144.90013,188.06738c0,-2.78814 0,-5.08691 0,-7.64575c4.62189,0 8.88327,0 13.55446,0c0,22.73257 0,45.57129 0,68.77628c-4.19376,0 -8.58502,0 -13.55446,0c0,-20.21738 0,-40.42926 0,-61.13053z" fill="#070707"/>
 </g>
</svg>