<svg xmlns="http://www.w3.org/2000/svg" xmlns:xlink="http://www.w3.org/1999/xlink" version="1.1" x="0px" y="0px" viewBox="0 0 100 125" style="enable-background:new 0 0 100 100;" xml:space="preserve"><g><path d="M91.4,7.5H8.6C8,7.5,7.5,8,7.5,8.6v82.7c0,0.6,0.5,1.1,1.1,1.1h82.7c0.6,0,1.1-0.5,1.1-1.1V8.6C92.5,8,92,7.5,91.4,7.5z    M54.9,33.2v-7.2h30.9v7.2H54.9z M50.6,41.1v-6.8H73v6.8H50.6z M50.6,49.4V44v-1.8h13.9v7.1H50.6z M49.4,9.8v10.9L47.7,19   c0,0,0,0,0,0l-9.2-9.2H49.4z M50.6,33.2v-7.2h3.2v7.2H50.6z M9.8,14.2V9.8h5.1l5.4,5.4l0.5,0.5l1.7,1.7l26.9,26.9v5.1H45l-5.6-5.6   l-1.7-1.7L25.2,29.5l-9.1-9.1l-6.1-6.1L9.8,14.2z M35.6,19.1L35.6,19.1L35.6,19.1L35.6,19.1z M49.4,77.7l-9.7,9.7l-4.9-4.9   l14.6-14.6V77.7z M49.4,66.3L40,75.7l-4.5-4.5l8.7-8.7c0,0,0,0,0,0c0,0,0.1,0,0.1-0.1l5.2-5.2V66.3z M15.6,80l22.6-22.6l4.8,4.8   L20.4,84.8L15.6,80z M9.8,74l13.4-13.4l5.1,5.1L9.8,84.2V74z M9.8,62.4l1.6-1.6l5,5l-6.6,6.6V62.4z M9.8,50.6H20l-9,9c0,0,0,0,0,0   l-1.2,1.2V50.6z M9.8,39.2L20,49.4H9.8V39.2z M43.4,50.6l-5.6,5.6l-8.7,8.7L24,59.8l9.2-9.2H43.4z M17.2,64.9l-5-5l9.4-9.4h9.9   L17.2,64.9z M49.4,55.7l-5.6,5.6L39,56.6l6-6h4.4V55.7z M21.2,15.3L21.2,15.3L21.2,15.3L21.2,15.3z M15.6,20.8L15.6,20.8L15.6,20.8   z M24.4,30.4l14.3,14.3l4.7,4.7H33.2L9.8,26V15.8l5.4,5.4L24.4,30.4z M9.8,27.7l13.9,13.9l7.9,7.9h-2h-7.9L20,47.8l-0.6-0.6l0,0   l-9.3-9.3l-0.4-0.1V27.7z M34.7,72.1l4.5,4.5L25.5,90.2h-9L34.7,72.1z M36.9,9.8l7.1,7.1l2.4,2.4h0l2,2l0.9,0.9v9.8L36,18.7   l-8.9-8.9H36.9z M25.5,9.8l9.7,9.7l14.2,14.2v9L21.7,14.9c0,0,0,0,0,0c0,0,0-0.1-0.1-0.1l-5-5H25.5z M9.8,90.2v-4.4l5-5l4.8,4.8   l-4.6,4.6H9.8z M34,83.4l4.9,4.9l-1.9,1.9h-9.8L34,83.4z M38.6,90.2l1.5-1.5v0l9.3-9.3v10.9H38.6z M50.6,24.8V22v-4.3H73v7.1H50.6z    M50.6,16.6V9.8h13.9v6.8H50.6z M50.6,78V66.5V56v-5.4h7.3v39.7h-7.3V78z M59,50.5h7.2v4v12.9v20.3v2.6H59V50.5z M67.4,87.6V67.4   V54.5v-4h6.7v39.7h-6.7V87.6z M75.3,50.5h6.3v39.7h-6.3V50.5z M65.7,49.4v-7.1h24.5v7.1H65.7z M74.1,41.1v-6.8h16.1v6.8H74.1z    M90.2,33.2H87v-7.2h3.2V33.2z M74.1,24.8v-7.1h16.1v7.1H74.1z M90.2,16.6H65.7V9.8h24.5V16.6z M82.7,90.2V50.5h7.5v39.7H82.7z"/></g><text x="0" y="115" fill="#000000" font-size="5px" font-weight="bold" font-family="'Helvetica Neue', Helvetica, Arial-Unicode, Arial, Sans-serif">Created by Lara </text><text x="0" y="120" fill="#000000" font-size="5px" font-weight="bold" font-family="'Helvetica Neue', Helvetica, Arial-Unicode, Arial, Sans-serif">from the Noun Project</text></svg>