<svg version="1.1" id="Layer_1" xmlns="http://www.w3.org/2000/svg" xmlns:xlink="http://www.w3.org/1999/xlink" x="0px" y="0px"
	 width="100%" viewBox="0 0 500 500" enable-background="new 0 0 500 500" xml:space="preserve">
<path fill="#FEFEFE" opacity="1.000000" stroke="none" 
	d="
M231.000000,501.000000 
	C154.000015,501.000000 77.500038,501.000000 1.000041,501.000000 
	C1.000027,334.333405 1.000027,167.666779 1.000014,1.000131 
	C167.666565,1.000087 334.333130,1.000087 500.999756,1.000044 
	C500.999847,167.666519 500.999847,334.333038 500.999939,500.999786 
	C411.166656,501.000000 321.333344,501.000000 231.000000,501.000000 
M281.577667,293.006622 
	C288.499634,293.006622 295.421631,293.006622 302.650757,293.006622 
	C302.650757,290.753723 302.650787,289.110931 302.650757,287.468170 
	C302.650635,253.994156 302.660034,220.520142 302.633179,187.046143 
	C302.630920,184.220703 302.514526,181.382614 302.232697,178.572296 
	C300.757568,163.862534 292.825989,156.384583 278.105133,156.084961 
	C268.283447,155.885040 258.453430,155.930313 248.629395,156.049484 
	C233.186264,156.236801 225.348801,163.285934 223.415253,178.585526 
	C223.144974,180.724182 223.125046,182.904526 223.123947,185.065643 
	C223.106552,219.538879 223.108231,254.012115 223.120621,288.485352 
	C223.121140,289.920105 223.268250,291.354797 223.346283,292.775360 
	C233.146698,292.775360 242.566360,292.775360 252.343323,292.775360 
	C252.343323,277.787262 252.343323,263.025482 252.343323,248.065735 
	C259.458527,248.065735 266.212402,248.065735 273.548279,248.065735 
	C273.548279,263.135895 273.548279,277.987640 273.548279,293.006622 
	C276.288788,293.006622 278.447723,293.006622 281.577667,293.006622 
M122.309265,247.499939 
	C122.519157,256.486267 122.253548,265.515198 123.053978,274.448608 
	C124.165520,286.854279 132.386841,294.483978 144.837540,294.890106 
	C156.321884,295.264740 167.836197,295.242432 179.322342,294.897095 
	C191.491684,294.531250 199.205093,287.560089 201.041565,275.521210 
	C201.789856,270.615906 201.873077,265.576538 201.886597,260.597198 
	C201.957214,234.603806 202.048660,208.609055 201.852203,182.616898 
	C201.716797,164.704300 193.008667,156.135254 175.431320,156.014008 
	C167.433640,155.958847 159.435303,155.996002 151.437256,156.003296 
	C130.553726,156.022339 122.486206,164.061264 122.313972,185.014999 
	C122.304390,186.181305 122.309387,187.347748 122.309380,188.514130 
	C122.309235,207.842728 122.309380,227.171326 122.309265,247.499939 
M65.676025,275.048157 
	C58.047733,275.011688 57.912354,274.875824 57.909092,267.071320 
	C57.905468,258.407379 57.908249,249.743423 57.908260,241.079468 
	C57.908291,221.418976 57.981571,201.757996 57.852295,182.098358 
	C57.823193,177.672562 59.318516,175.494614 63.944229,175.867508 
	C66.096230,176.040970 68.273811,175.896591 70.439796,175.897079 
	C78.801338,175.898956 78.950294,176.043411 78.953506,184.181870 
	C78.955063,188.119751 78.953773,192.057632 78.953773,195.899963 
	C88.467041,195.899963 97.387299,195.899963 106.212303,195.899963 
	C106.212303,189.662720 106.678436,183.665436 106.118538,177.765518 
	C104.817596,164.056854 96.960312,156.607437 83.307747,156.152924 
	C72.823265,155.803894 62.306404,155.778625 51.824383,156.164536 
	C37.973873,156.674454 29.851269,165.002182 28.953619,178.924179 
	C28.782278,181.581589 28.763613,184.252167 28.762230,186.916718 
	C28.748831,212.741943 28.745703,238.567169 28.765551,264.392395 
	C28.767855,267.389374 28.764906,270.401306 29.041666,273.380554 
	C30.257170,286.465271 38.408234,294.483215 51.518044,294.903290 
	C62.336170,295.249939 73.184616,295.267700 84.000954,294.892761 
	C96.771255,294.450043 105.271233,286.912354 105.949181,274.151337 
	C106.858360,257.037842 106.520920,239.857880 106.697601,222.706238 
	C106.712585,221.251831 106.568748,219.795776 106.480942,217.971786 
	C95.243912,217.971786 84.280914,217.971802 73.317924,217.971802 
	C71.696777,217.971802 70.075630,217.971786 68.302551,217.971786 
	C68.302551,225.306000 68.302551,232.215042 68.302551,239.613541 
	C71.966507,239.613541 75.375702,239.613541 78.953781,239.613541 
	C78.953781,247.596313 78.912727,255.088638 78.962677,262.580353 
	C79.054779,276.394379 79.512611,275.062103 65.676025,275.048157 
M399.686279,175.396439 
	C399.579620,189.360703 398.529694,203.400040 399.633575,217.267944 
	C400.721375,230.933472 409.382874,237.568939 423.279114,237.925003 
	C429.438324,238.082794 435.608276,238.109985 441.765991,237.936234 
	C445.870270,237.820450 447.552124,239.669662 447.516724,243.587112 
	C447.473053,248.417221 447.510529,253.248047 447.508514,258.078552 
	C447.501465,274.894836 448.972382,272.676147 432.371216,272.882202 
	C428.330566,272.932312 426.594788,271.163147 426.699158,267.168976 
	C426.814331,262.760437 426.725494,258.346527 426.725494,253.661026 
	C421.486938,253.661026 417.003754,253.661011 412.520538,253.661011 
	C408.093201,253.661011 403.665833,253.661026 399.129822,253.661026 
	C399.129822,260.351257 398.708282,266.521637 399.214355,272.614960 
	C400.401215,286.904755 408.777069,294.688538 422.989899,294.975281 
	C432.480225,295.166718 441.981903,295.185944 451.470856,294.960510 
	C465.557831,294.625916 474.308624,286.410095 474.879272,272.294373 
	C475.390137,259.657196 475.361938,246.970795 474.912048,234.329590 
	C474.405548,220.097961 465.788422,211.886368 451.294006,211.167191 
	C445.145264,210.862106 438.963654,210.877762 432.810730,211.110672 
	C428.185944,211.285751 426.492371,209.306412 426.685364,204.881500 
	C426.866608,200.725174 426.713074,196.554688 426.725830,192.390488 
	C426.773254,176.915039 425.104248,179.001419 440.877960,178.817093 
	C444.455017,178.775299 446.083221,180.416931 446.025635,183.946243 
	C445.974976,187.050491 446.015045,190.156204 446.015045,193.348907 
	C455.503418,193.348907 464.427460,193.348907 474.039154,193.348907 
	C473.756470,187.646988 473.831970,182.177948 473.149963,176.805054 
	C471.507507,163.865952 464.008270,156.768799 450.969574,156.194641 
	C441.162262,155.762787 431.303558,155.756989 421.498077,156.213120 
	C409.392761,156.776215 402.616272,162.849060 399.686279,175.396439 
M353.282745,261.397278 
	C353.282745,227.124069 353.282745,192.850861 353.282745,158.436768 
	C343.377350,158.436768 333.849121,158.436768 324.308105,158.436768 
	C324.308105,203.368942 324.308105,247.944687 324.308105,292.673523 
	C344.696075,292.673523 364.888977,292.673523 384.802216,292.673523 
	C384.802216,284.435822 384.802216,276.530518 384.802216,268.200806 
	C374.190308,268.200806 363.940521,268.200806 353.282776,268.200806 
	C353.282776,265.971893 353.282776,264.169525 353.282745,261.397278 
M344.038269,340.280273 
	C344.167480,327.327362 338.290802,319.004791 327.327850,318.329010 
	C316.594482,317.667389 305.788483,318.184967 294.801758,318.184967 
	C294.801758,339.530060 294.801758,360.601929 294.801758,381.695709 
	C299.397552,381.695709 303.781616,381.695709 308.543274,381.695709 
	C308.543274,373.971039 308.543274,366.547028 308.543274,359.200653 
	C318.046051,357.633606 318.051483,357.631042 321.740234,365.400238 
	C323.946594,370.047272 326.040466,374.751495 328.394501,379.322083 
	C328.966858,380.433380 330.319366,381.808685 331.391754,381.880035 
	C335.755280,382.170227 340.149323,382.000793 345.036743,382.000793 
	C342.716248,377.303802 340.751984,373.308075 338.769836,369.321259 
	C336.740692,365.239777 334.694031,361.167023 332.591522,356.963501 
	C339.889313,353.689117 343.246490,348.321869 344.038269,340.280273 
M282.924408,345.765564 
	C282.587769,343.460327 282.387756,341.125214 281.891815,338.854767 
	C279.099487,326.070129 270.240021,318.072021 257.884613,317.082306 
	C244.197525,315.985901 233.750687,322.052124 229.455856,334.193481 
	C225.672531,344.888824 225.656555,355.806305 229.706894,366.470123 
	C233.895416,377.497681 242.660370,383.065125 255.016037,383.046997 
	C267.313690,383.028961 276.450745,377.463135 280.059570,366.262909 
	C282.054321,360.072083 282.061981,353.240967 282.924408,345.765564 
M211.308136,376.808563 
	C221.733261,362.699310 221.095642,347.195068 216.184204,331.613342 
	C212.950455,321.354095 205.306412,316.887787 194.279968,316.999481 
	C183.695938,317.106720 176.565079,321.932251 172.995255,331.917053 
	C169.066284,342.906464 168.991470,354.168976 172.051437,365.339813 
	C176.955841,383.244110 196.315201,389.143677 211.308136,376.808563 
M390.664764,380.325775 
	C399.087280,375.715820 403.011749,368.319672 401.785767,359.367035 
	C400.649475,351.069672 395.555817,346.141785 385.710724,344.017853 
	C381.647278,343.141205 377.499481,342.647827 373.448547,341.723694 
	C370.367096,341.020660 368.593811,338.985901 368.657288,335.628418 
	C368.721130,332.253082 370.592163,330.520294 373.717468,329.782349 
	C380.635437,328.148926 386.484955,330.161255 390.660156,334.281067 
	C394.082733,331.427551 397.348267,328.704987 400.601440,325.992676 
	C391.162628,316.455994 375.227844,314.061401 364.169037,320.285583 
	C356.813660,324.425385 354.028381,330.942291 354.881500,339.191467 
	C355.676697,346.881042 360.052277,351.742523 367.226593,353.842072 
	C371.503052,355.093506 376.045624,355.428497 380.462463,356.209900 
	C384.480316,356.920654 388.002808,358.209229 387.952179,363.250153 
	C387.910706,367.381470 385.129913,370.159729 380.104492,370.690430 
	C377.991943,370.913513 375.619537,370.997681 373.701294,370.265106 
	C369.464325,368.646973 365.440491,366.470764 361.250427,364.484619 
	C358.731995,366.916168 355.864899,369.684357 353.013672,372.437256 
	C361.091583,382.644165 375.323273,385.785339 390.664764,380.325775 
M114.503952,318.057251 
	C109.417252,318.057251 104.330551,318.057251 99.326416,318.057251 
	C99.326416,339.721863 99.326416,360.758514 99.326416,381.685150 
	C104.028755,381.685150 108.423058,381.685150 113.160248,381.685150 
	C113.160248,372.955933 113.160248,364.541321 113.160248,355.768066 
	C121.254852,355.768066 129.001297,355.768066 136.834473,355.768066 
	C136.834473,351.503876 136.834473,347.619049 136.834473,343.379059 
	C128.744659,343.379059 120.975571,343.379059 113.263443,343.379059 
	C113.263443,338.929993 113.263443,334.843781 113.263443,330.222229 
	C122.744995,330.222229 131.959229,330.222229 141.121826,330.222229 
	C141.121826,325.922363 141.121826,322.172760 141.121826,318.057251 
	C132.409073,318.057251 123.955650,318.057251 114.503952,318.057251 
M148.900131,322.556763 
	C148.900131,342.768646 148.900131,362.980530 148.900131,383.197906 
	C153.869568,383.197906 158.260834,383.197906 162.454590,383.197906 
	C162.454590,359.992920 162.454590,337.154205 162.454590,314.421631 
	C157.783401,314.421631 153.522018,314.421631 148.900131,314.421631 
	C148.900131,316.980469 148.900131,319.279236 148.900131,322.556763 
z"/>
<path fill="#040404" opacity="1.000000" stroke="none" 
	d="
M281.092163,293.006622 
	C278.447723,293.006622 276.288788,293.006622 273.548279,293.006622 
	C273.548279,277.987640 273.548279,263.135895 273.548279,248.065735 
	C266.212402,248.065735 259.458527,248.065735 252.343323,248.065735 
	C252.343323,263.025482 252.343323,277.787262 252.343323,292.775360 
	C242.566360,292.775360 233.146698,292.775360 223.346283,292.775360 
	C223.268250,291.354797 223.121140,289.920105 223.120621,288.485352 
	C223.108231,254.012115 223.106552,219.538879 223.123947,185.065643 
	C223.125046,182.904526 223.144974,180.724182 223.415253,178.585526 
	C225.348801,163.285934 233.186264,156.236801 248.629395,156.049484 
	C258.453430,155.930313 268.283447,155.885040 278.105133,156.084961 
	C292.825989,156.384583 300.757568,163.862534 302.232697,178.572296 
	C302.514526,181.382614 302.630920,184.220703 302.633179,187.046143 
	C302.660034,220.520142 302.650635,253.994156 302.650757,287.468170 
	C302.650787,289.110931 302.650757,290.753723 302.650757,293.006622 
	C295.421631,293.006622 288.499634,293.006622 281.092163,293.006622 
M270.942749,176.171661 
	C266.618347,176.078598 262.287872,176.096085 257.971252,175.860733 
	C253.826797,175.634781 252.244843,177.658798 252.265350,181.541992 
	C252.304947,189.041214 252.275803,196.540802 252.275513,204.040237 
	C252.275269,210.988998 252.275467,217.937775 252.275467,224.890930 
	C259.625763,224.890930 266.383545,224.890930 273.381989,224.890930 
	C273.381989,210.123230 273.431000,195.645950 273.308594,181.170135 
	C273.295929,179.668808 272.264526,178.176102 270.942749,176.171661 
z"/>
<path fill="#A76126" opacity="1.000000" stroke="none" 
	d="
M122.309357,246.999939 
	C122.309380,227.171326 122.309235,207.842728 122.309380,188.514130 
	C122.309387,187.347748 122.304390,186.181305 122.313972,185.014999 
	C122.486206,164.061264 130.553726,156.022339 151.437256,156.003296 
	C159.435303,155.996002 167.433640,155.958847 175.431320,156.014008 
	C193.008667,156.135254 201.716797,164.704300 201.852203,182.616898 
	C202.048660,208.609055 201.957214,234.603806 201.886597,260.597198 
	C201.873077,265.576538 201.789856,270.615906 201.041565,275.521210 
	C199.205093,287.560089 191.491684,294.531250 179.322342,294.897095 
	C167.836197,295.242432 156.321884,295.264740 144.837540,294.890106 
	C132.386841,294.483978 124.165520,286.854279 123.053978,274.448608 
	C122.253548,265.515198 122.519157,256.486267 122.309357,246.999939 
M151.716431,189.520416 
	C151.716446,213.637268 151.718002,237.754120 151.715912,261.870972 
	C151.714645,276.603943 150.577133,275.000946 164.774857,275.034851 
	C172.149368,275.052490 172.753967,274.451080 172.756042,267.137756 
	C172.763901,239.528137 172.761459,211.918503 172.757828,184.308884 
	C172.756760,176.238373 172.426453,175.899521 164.292282,175.919678 
	C150.736740,175.953262 151.695923,174.411621 151.716431,189.520416 
z"/>
<path fill="#020202" opacity="1.000000" stroke="none" 
	d="
M66.144753,275.048157 
	C79.512611,275.062103 79.054779,276.394379 78.962677,262.580353 
	C78.912727,255.088638 78.953781,247.596313 78.953781,239.613541 
	C75.375702,239.613541 71.966507,239.613541 68.302551,239.613541 
	C68.302551,232.215042 68.302551,225.306000 68.302551,217.971786 
	C70.075630,217.971786 71.696777,217.971802 73.317924,217.971802 
	C84.280914,217.971802 95.243912,217.971786 106.480942,217.971786 
	C106.568748,219.795776 106.712585,221.251831 106.697601,222.706238 
	C106.520920,239.857880 106.858360,257.037842 105.949181,274.151337 
	C105.271233,286.912354 96.771255,294.450043 84.000954,294.892761 
	C73.184616,295.267700 62.336170,295.249939 51.518044,294.903290 
	C38.408234,294.483215 30.257170,286.465271 29.041666,273.380554 
	C28.764906,270.401306 28.767855,267.389374 28.765551,264.392395 
	C28.745703,238.567169 28.748831,212.741943 28.762230,186.916718 
	C28.763613,184.252167 28.782278,181.581589 28.953619,178.924179 
	C29.851269,165.002182 37.973873,156.674454 51.824383,156.164536 
	C62.306404,155.778625 72.823265,155.803894 83.307747,156.152924 
	C96.960312,156.607437 104.817596,164.056854 106.118538,177.765518 
	C106.678436,183.665436 106.212303,189.662720 106.212303,195.899963 
	C97.387299,195.899963 88.467041,195.899963 78.953773,195.899963 
	C78.953773,192.057632 78.955063,188.119751 78.953506,184.181870 
	C78.950294,176.043411 78.801338,175.898956 70.439796,175.897079 
	C68.273811,175.896591 66.096230,176.040970 63.944229,175.867508 
	C59.318516,175.494614 57.823193,177.672562 57.852295,182.098358 
	C57.981571,201.757996 57.908291,221.418976 57.908260,241.079468 
	C57.908249,249.743423 57.905468,258.407379 57.909092,267.071320 
	C57.912354,274.875824 58.047733,275.011688 66.144753,275.048157 
z"/>
<path fill="#020202" opacity="1.000000" stroke="none" 
	d="
M399.763611,174.976700 
	C402.616272,162.849060 409.392761,156.776215 421.498077,156.213120 
	C431.303558,155.756989 441.162262,155.762787 450.969574,156.194641 
	C464.008270,156.768799 471.507507,163.865952 473.149963,176.805054 
	C473.831970,182.177948 473.756470,187.646988 474.039154,193.348907 
	C464.427460,193.348907 455.503418,193.348907 446.015045,193.348907 
	C446.015045,190.156204 445.974976,187.050491 446.025635,183.946243 
	C446.083221,180.416931 444.455017,178.775299 440.877960,178.817093 
	C425.104248,179.001419 426.773254,176.915039 426.725830,192.390488 
	C426.713074,196.554688 426.866608,200.725174 426.685364,204.881500 
	C426.492371,209.306412 428.185944,211.285751 432.810730,211.110672 
	C438.963654,210.877762 445.145264,210.862106 451.294006,211.167191 
	C465.788422,211.886368 474.405548,220.097961 474.912048,234.329590 
	C475.361938,246.970795 475.390137,259.657196 474.879272,272.294373 
	C474.308624,286.410095 465.557831,294.625916 451.470856,294.960510 
	C441.981903,295.185944 432.480225,295.166718 422.989899,294.975281 
	C408.777069,294.688538 400.401215,286.904755 399.214355,272.614960 
	C398.708282,266.521637 399.129822,260.351257 399.129822,253.661026 
	C403.665833,253.661026 408.093201,253.661011 412.520538,253.661011 
	C417.003754,253.661011 421.486938,253.661026 426.725494,253.661026 
	C426.725494,258.346527 426.814331,262.760437 426.699158,267.168976 
	C426.594788,271.163147 428.330566,272.932312 432.371216,272.882202 
	C448.972382,272.676147 447.501465,274.894836 447.508514,258.078552 
	C447.510529,253.248047 447.473053,248.417221 447.516724,243.587112 
	C447.552124,239.669662 445.870270,237.820450 441.765991,237.936234 
	C435.608276,238.109985 429.438324,238.082794 423.279114,237.925003 
	C409.382874,237.568939 400.721375,230.933472 399.633575,217.267944 
	C398.529694,203.400040 399.579620,189.360703 399.763611,174.976700 
z"/>
<path fill="#020202" opacity="1.000000" stroke="none" 
	d="
M353.282776,261.882202 
	C353.282776,264.169525 353.282776,265.971893 353.282776,268.200806 
	C363.940521,268.200806 374.190308,268.200806 384.802216,268.200806 
	C384.802216,276.530518 384.802216,284.435822 384.802216,292.673523 
	C364.888977,292.673523 344.696075,292.673523 324.308105,292.673523 
	C324.308105,247.944687 324.308105,203.368942 324.308105,158.436768 
	C333.849121,158.436768 343.377350,158.436768 353.282745,158.436768 
	C353.282745,192.850861 353.282745,227.124069 353.282776,261.882202 
z"/>
<path fill="#030303" opacity="1.000000" stroke="none" 
	d="
M344.021912,340.724670 
	C343.246490,348.321869 339.889313,353.689117 332.591522,356.963501 
	C334.694031,361.167023 336.740692,365.239777 338.769836,369.321259 
	C340.751984,373.308075 342.716248,377.303802 345.036743,382.000793 
	C340.149323,382.000793 335.755280,382.170227 331.391754,381.880035 
	C330.319366,381.808685 328.966858,380.433380 328.394501,379.322083 
	C326.040466,374.751495 323.946594,370.047272 321.740234,365.400238 
	C318.051483,357.631042 318.046051,357.633606 308.543274,359.200653 
	C308.543274,366.547028 308.543274,373.971039 308.543274,381.695709 
	C303.781616,381.695709 299.397552,381.695709 294.801758,381.695709 
	C294.801758,360.601929 294.801758,339.530060 294.801758,318.184967 
	C305.788483,318.184967 316.594482,317.667389 327.327850,318.329010 
	C338.290802,319.004791 344.167480,327.327362 344.021912,340.724670 
M323.857513,330.127747 
	C318.809784,330.127747 313.762054,330.127747 308.644531,330.127747 
	C308.644531,336.013153 308.644531,341.245911 308.644531,346.929169 
	C313.145874,346.929169 317.406647,346.883881 321.666046,346.942322 
	C325.651917,346.997009 328.954010,346.135254 329.798828,341.525238 
	C330.919220,335.411377 329.552246,332.371918 323.857513,330.127747 
z"/>
<path fill="#050505" opacity="1.000000" stroke="none" 
	d="
M282.944885,346.232025 
	C282.061981,353.240967 282.054321,360.072083 280.059570,366.262909 
	C276.450745,377.463135 267.313690,383.028961 255.016037,383.046997 
	C242.660370,383.065125 233.895416,377.497681 229.706894,366.470123 
	C225.656555,355.806305 225.672531,344.888824 229.455856,334.193481 
	C233.750687,322.052124 244.197525,315.985901 257.884613,317.082306 
	C270.240021,318.072021 279.099487,326.070129 281.891815,338.854767 
	C282.387756,341.125214 282.587769,343.460327 282.944885,346.232025 
M241.604279,353.410583 
	C241.694748,355.073792 241.708008,356.745453 241.888855,358.398773 
	C242.740479,366.184082 247.610504,370.790527 254.931137,370.795654 
	C262.207397,370.800751 267.426208,366.121368 267.947754,358.405914 
	C268.339722,352.606964 268.387756,346.719574 267.853394,340.939575 
	C267.174896,333.600525 261.730499,329.142334 254.673340,329.296021 
	C247.708694,329.447662 242.859039,333.750702 242.017242,340.962524 
	C241.574860,344.752533 241.722519,348.611420 241.604279,353.410583 
z"/>
<path fill="#050505" opacity="1.000000" stroke="none" 
	d="
M211.052933,377.064758 
	C196.315201,389.143677 176.955841,383.244110 172.051437,365.339813 
	C168.991470,354.168976 169.066284,342.906464 172.995255,331.917053 
	C176.565079,321.932251 183.695938,317.106720 194.279968,316.999481 
	C205.306412,316.887787 212.950455,321.354095 216.184204,331.613342 
	C221.095642,347.195068 221.733261,362.699310 211.052933,377.064758 
M186.768799,366.473755 
	C188.640091,371.043610 192.382736,371.692841 196.666122,371.183960 
	C200.812973,370.691284 203.175644,367.819305 203.351303,364.189850 
	C203.799988,354.918854 204.081039,345.583069 203.458817,336.338470 
	C203.091705,330.884003 199.614670,328.714264 194.632172,328.744965 
	C189.614120,328.775879 186.346024,330.841339 186.039963,336.505463 
	C185.514786,346.224701 186.201294,356.009399 186.768799,366.473755 
z"/>
<path fill="#050505" opacity="1.000000" stroke="none" 
	d="
M390.335022,380.524048 
	C375.323273,385.785339 361.091583,382.644165 353.013672,372.437256 
	C355.864899,369.684357 358.731995,366.916168 361.250427,364.484619 
	C365.440491,366.470764 369.464325,368.646973 373.701294,370.265106 
	C375.619537,370.997681 377.991943,370.913513 380.104492,370.690430 
	C385.129913,370.159729 387.910706,367.381470 387.952179,363.250153 
	C388.002808,358.209229 384.480316,356.920654 380.462463,356.209900 
	C376.045624,355.428497 371.503052,355.093506 367.226593,353.842072 
	C360.052277,351.742523 355.676697,346.881042 354.881500,339.191467 
	C354.028381,330.942291 356.813660,324.425385 364.169037,320.285583 
	C375.227844,314.061401 391.162628,316.455994 400.601440,325.992676 
	C397.348267,328.704987 394.082733,331.427551 390.660156,334.281067 
	C386.484955,330.161255 380.635437,328.148926 373.717468,329.782349 
	C370.592163,330.520294 368.721130,332.253082 368.657288,335.628418 
	C368.593811,338.985901 370.367096,341.020660 373.448547,341.723694 
	C377.499481,342.647827 381.647278,343.141205 385.710724,344.017853 
	C395.555817,346.141785 400.649475,351.069672 401.785767,359.367035 
	C403.011749,368.319672 399.087280,375.715820 390.335022,380.524048 
z"/>
<path fill="#020202" opacity="1.000000" stroke="none" 
	d="
M115.003090,318.057251 
	C123.955650,318.057251 132.409073,318.057251 141.121826,318.057251 
	C141.121826,322.172760 141.121826,325.922363 141.121826,330.222229 
	C131.959229,330.222229 122.744995,330.222229 113.263443,330.222229 
	C113.263443,334.843781 113.263443,338.929993 113.263443,343.379059 
	C120.975571,343.379059 128.744659,343.379059 136.834473,343.379059 
	C136.834473,347.619049 136.834473,351.503876 136.834473,355.768066 
	C129.001297,355.768066 121.254852,355.768066 113.160248,355.768066 
	C113.160248,364.541321 113.160248,372.955933 113.160248,381.685150 
	C108.423058,381.685150 104.028755,381.685150 99.326416,381.685150 
	C99.326416,360.758514 99.326416,339.721863 99.326416,318.057251 
	C104.330551,318.057251 109.417252,318.057251 115.003090,318.057251 
z"/>
<path fill="#070707" opacity="1.000000" stroke="none" 
	d="
M148.900131,322.067383 
	C148.900131,319.279236 148.900131,316.980469 148.900131,314.421631 
	C153.522018,314.421631 157.783401,314.421631 162.454590,314.421631 
	C162.454590,337.154205 162.454590,359.992920 162.454590,383.197906 
	C158.260834,383.197906 153.869568,383.197906 148.900131,383.197906 
	C148.900131,362.980530 148.900131,342.768646 148.900131,322.067383 
z"/>
<path fill="#FBFBFB" opacity="1.000000" stroke="none" 
	d="
M271.324280,176.425537 
	C272.264526,178.176102 273.295929,179.668808 273.308594,181.170135 
	C273.431000,195.645950 273.381989,210.123230 273.381989,224.890930 
	C266.383545,224.890930 259.625763,224.890930 252.275467,224.890930 
	C252.275467,217.937775 252.275269,210.988998 252.275513,204.040237 
	C252.275803,196.540802 252.304947,189.041214 252.265350,181.541992 
	C252.244843,177.658798 253.826797,175.634781 257.971252,175.860733 
	C262.287872,176.096085 266.618347,176.078598 271.324280,176.425537 
z"/>
<path fill="#FEFCFB" opacity="1.000000" stroke="none" 
	d="
M151.716339,189.025818 
	C151.695923,174.411621 150.736740,175.953262 164.292282,175.919678 
	C172.426453,175.899521 172.756760,176.238373 172.757828,184.308884 
	C172.761459,211.918503 172.763901,239.528137 172.756042,267.137756 
	C172.753967,274.451080 172.149368,275.052490 164.774857,275.034851 
	C150.577133,275.000946 151.714645,276.603943 151.715912,261.870972 
	C151.718002,237.754120 151.716446,213.637268 151.716339,189.025818 
z"/>
<path fill="#F3F3F3" opacity="1.000000" stroke="none" 
	d="
M324.286499,330.175964 
	C329.552246,332.371918 330.919220,335.411377 329.798828,341.525238 
	C328.954010,346.135254 325.651917,346.997009 321.666046,346.942322 
	C317.406647,346.883881 313.145874,346.929169 308.644531,346.929169 
	C308.644531,341.245911 308.644531,336.013153 308.644531,330.127747 
	C313.762054,330.127747 318.809784,330.127747 324.286499,330.175964 
z"/>
<path fill="#FCFCFC" opacity="1.000000" stroke="none" 
	d="
M241.604004,352.924896 
	C241.722519,348.611420 241.574860,344.752533 242.017242,340.962524 
	C242.859039,333.750702 247.708694,329.447662 254.673340,329.296021 
	C261.730499,329.142334 267.174896,333.600525 267.853394,340.939575 
	C268.387756,346.719574 268.339722,352.606964 267.947754,358.405914 
	C267.426208,366.121368 262.207397,370.800751 254.931137,370.795654 
	C247.610504,370.790527 242.740479,366.184082 241.888855,358.398773 
	C241.708008,356.745453 241.694748,355.073792 241.604004,352.924896 
z"/>
<path fill="#FCFCFC" opacity="1.000000" stroke="none" 
	d="
M186.573959,366.120178 
	C186.201294,356.009399 185.514786,346.224701 186.039963,336.505463 
	C186.346024,330.841339 189.614120,328.775879 194.632172,328.744965 
	C199.614670,328.714264 203.091705,330.884003 203.458817,336.338470 
	C204.081039,345.583069 203.799988,354.918854 203.351303,364.189850 
	C203.175644,367.819305 200.812973,370.691284 196.666122,371.183960 
	C192.382736,371.692841 188.640091,371.043610 186.573959,366.120178 
z"/>
</svg>